<svg width="334" height="250" viewBox="0 0 334 250" fill="none" xmlns="http://www.w3.org/2000/svg">
<path opacity="0.1" d="M190.547 35.0594C170.192 34.3544 150.806 27.7768 132.295 20.5823C113.783 13.3879 95.4479 5.40659 75.5808 1.60794C62.8027 -0.846867 48.1878 -1.19306 37.8942 5.66466C27.9905 12.2612 24.7826 23.6603 23.0623 34.2159C21.7666 42.1657 21.0055 50.5341 24.5531 57.9772C27.0187 63.1449 31.3903 67.488 34.4158 72.4354C44.9421 89.66 37.5011 110.897 26.0972 127.713C20.7507 135.599 14.5393 143.134 10.4099 151.521C6.28055 159.908 4.37153 169.539 7.98514 178.105C11.5642 186.603 20.0966 192.973 29.3398 197.457C48.1123 206.568 70.2249 209.174 91.8028 210.654C139.553 213.92 187.556 212.507 235.432 211.088C253.151 210.565 270.946 210.034 288.375 207.292C298.056 205.769 308.047 203.352 315.076 197.517C323.996 190.112 326.207 177.573 320.228 168.286C310.202 152.711 282.488 148.843 275.471 132.128C271.616 122.926 275.575 112.678 281.183 104.146C293.209 85.8393 313.366 69.7792 314.425 48.8567C315.155 34.4866 305.465 20.0945 290.482 13.2934C274.779 6.16507 253 7.06201 241.42 18.8577C229.485 31.009 208.514 35.6857 190.547 35.0594Z" fill="#6C63FF"/>
<path d="M81.6161 38.8613H0V120.534H81.6161V38.8613Z" fill="#E8E9ED"/>
<path d="M334 38.8613H252.384V120.534H334V38.8613Z" fill="#E8E9ED"/>
<path opacity="0.5" d="M45.7253 10.0802L44.9108 9.24618C44.8946 9.22806 44.8747 9.21363 44.8524 9.20385C44.8302 9.19408 44.8061 9.1892 44.7818 9.18953C44.7575 9.18877 44.7332 9.19346 44.7109 9.20326C44.6886 9.21306 44.6688 9.22773 44.6529 9.24618L39.0233 14.9111L36.9728 12.8623C36.9563 12.8446 36.9363 12.8304 36.9141 12.8208C36.8919 12.8111 36.868 12.8061 36.8438 12.8061C36.8196 12.8061 36.7957 12.8111 36.7735 12.8208C36.7513 12.8304 36.7313 12.8446 36.7149 12.8623L35.894 13.6837C35.8761 13.7008 35.8619 13.7213 35.8522 13.744C35.8424 13.7667 35.8374 13.7912 35.8374 13.8159C35.8374 13.8406 35.8424 13.8651 35.8522 13.8878C35.8619 13.9105 35.8761 13.931 35.894 13.9481L38.4792 16.5319C38.618 16.6857 38.8105 16.7804 39.017 16.7963C39.221 16.7785 39.4118 16.688 39.5548 16.5414L45.7285 10.3446C45.761 10.3082 45.7789 10.2611 45.7789 10.2124C45.7789 10.1636 45.761 10.1165 45.7285 10.0802H45.7253Z" fill="#3ACC6C"/>
<path opacity="0.5" d="M40.8065 4.68278C42.7264 4.68415 44.5865 5.35156 46.0698 6.5713C47.5532 7.79105 48.568 9.48769 48.9416 11.3722C49.3152 13.2567 49.0243 15.2126 48.1185 16.9065C47.2127 18.6005 45.7481 19.9279 43.9741 20.6625C42.2 21.3971 40.2264 21.4936 38.3893 20.9354C36.5522 20.3772 34.9653 19.199 33.8989 17.6014C32.8325 16.0037 32.3526 14.0856 32.5409 12.1736C32.7292 10.2616 33.5741 8.47411 34.9316 7.11555C35.7016 6.3416 36.6172 5.72809 37.6256 5.31052C38.634 4.89294 39.7152 4.67958 40.8065 4.68278ZM40.8065 3.38928C38.9073 3.38928 37.0508 3.95289 35.4717 5.0088C33.8927 6.06472 32.662 7.56553 31.9354 9.32141C31.2087 11.0773 31.0188 13.0094 31.3895 14.8733C31.7602 16.7372 32.675 18.4493 34.0182 19.7929C35.3613 21.1365 37.0725 22.0514 38.9352 22.4218C40.798 22.7922 42.7287 22.6014 44.4831 21.8737C46.2375 21.146 47.7369 19.914 48.7916 18.3335C49.8462 16.753 50.4088 14.895 50.4082 12.9945C50.4086 11.7327 50.1605 10.4833 49.6781 9.31752C49.1957 8.15177 48.4884 7.0926 47.5967 6.20055C46.7049 5.3085 45.6463 4.60107 44.4812 4.11869C43.3161 3.63632 42.0674 3.38846 40.8065 3.38928Z" fill="#6C63FF"/>
<path opacity="0.8" d="M108.761 36.9352L107.735 35.884C107.715 35.8618 107.69 35.8442 107.663 35.8322C107.635 35.8203 107.605 35.8144 107.575 35.8148C107.544 35.8135 107.514 35.819 107.486 35.831C107.457 35.843 107.432 35.8611 107.412 35.884L100.326 43.0281L97.7438 40.4474C97.7232 40.4255 97.6983 40.4081 97.6707 40.3962C97.6431 40.3843 97.6134 40.3782 97.5834 40.3782C97.5529 40.3781 97.5226 40.3842 97.4945 40.3961C97.4664 40.408 97.441 40.4255 97.4198 40.4474L96.3851 41.4829C96.3626 41.5041 96.3446 41.5296 96.3323 41.5581C96.32 41.5865 96.3137 41.6171 96.3137 41.6481C96.3137 41.6791 96.32 41.7097 96.3323 41.7381C96.3446 41.7665 96.3626 41.7921 96.3851 41.8133L99.6371 45.0612C99.8128 45.2544 100.056 45.3727 100.316 45.3917C100.571 45.3698 100.809 45.2583 100.989 45.077L108.758 37.2593C108.794 37.2149 108.814 37.1593 108.814 37.102C108.814 37.0446 108.794 36.989 108.758 36.9446L108.761 36.9352Z" fill="#3ACC6C"/>
<path opacity="0.8" d="M102.565 30.1372C104.984 30.1378 107.328 30.9776 109.198 32.5138C111.068 34.0499 112.348 36.1873 112.819 38.5617C113.291 40.9361 112.925 43.4007 111.785 45.5356C110.644 47.6705 108.799 49.3436 106.564 50.2698C104.329 51.196 101.842 51.3181 99.5267 50.6153C97.2117 49.9124 95.2118 48.4281 93.8678 46.4152C92.5238 44.4023 91.9188 41.9854 92.1559 39.5761C92.393 37.1669 93.4574 34.9145 95.168 33.2026C96.1367 32.227 97.2894 31.4536 98.5592 30.9274C99.829 30.4012 101.191 30.1326 102.565 30.1372ZM102.565 28.5101C100.175 28.5101 97.8378 29.2195 95.8503 30.5484C93.8627 31.8774 92.3136 33.7663 91.3988 35.9764C90.484 38.1864 90.2447 40.6182 90.711 42.9643C91.1774 45.3104 92.3285 47.4655 94.0188 49.157C95.709 50.8484 97.8626 52.0003 100.207 52.467C102.552 52.9337 104.982 52.6942 107.19 51.7788C109.399 50.8633 111.286 49.3131 112.614 47.3242C113.942 45.3352 114.651 42.9969 114.651 40.6048C114.652 39.0164 114.339 37.4434 113.732 35.9759C113.125 34.5083 112.235 33.1748 111.112 32.0516C109.99 30.9285 108.657 30.0376 107.191 29.4299C105.724 28.8223 104.152 28.5097 102.565 28.5101Z" fill="#6C63FF"/>
<path opacity="0.5" d="M293.19 4.68278C295.11 4.68415 296.97 5.35156 298.454 6.5713C299.937 7.79105 300.952 9.48769 301.325 11.3722C301.699 13.2567 301.408 15.2126 300.502 16.9065C299.597 18.6005 298.132 19.9279 296.358 20.6625C294.584 21.3971 292.61 21.4936 290.773 20.9354C288.936 20.3772 287.349 19.199 286.283 17.6014C285.216 16.0037 284.736 14.0856 284.925 12.1736C285.113 10.2616 285.958 8.47411 287.315 7.11555C288.085 6.3416 289.001 5.72809 290.009 5.31052C291.018 4.89294 292.099 4.67958 293.19 4.68278ZM293.19 3.38928C291.291 3.38928 289.435 3.95289 287.856 5.0088C286.277 6.06472 285.046 7.56553 284.319 9.32141C283.593 11.0773 283.403 13.0094 283.773 14.8733C284.144 16.7372 285.059 18.4493 286.402 19.7929C287.745 21.1365 289.456 22.0514 291.319 22.4218C293.182 22.7922 295.113 22.6014 296.867 21.8737C298.621 21.146 300.121 19.914 301.175 18.3335C302.23 16.753 302.793 14.895 302.792 12.9945C302.792 11.7327 302.544 10.4833 302.062 9.31752C301.58 8.15177 300.872 7.0926 299.981 6.20055C299.089 5.3085 298.03 4.60107 296.865 4.11869C295.7 3.63632 294.451 3.38846 293.19 3.38928Z" fill="#6C63FF"/>
<path opacity="0.8" d="M230.991 30.1372C233.411 30.1341 235.757 30.971 237.63 32.5051C239.502 34.0391 240.785 36.1756 241.259 38.5501C241.734 40.9247 241.37 43.3904 240.231 45.5269C239.092 47.6635 237.248 49.3386 235.013 50.2668C232.778 51.195 230.291 51.3187 227.975 50.617C225.658 49.9153 223.657 48.4314 222.312 46.4185C220.967 44.4055 220.361 41.9881 220.598 39.5781C220.835 37.1682 221.899 34.915 223.61 33.2026C224.58 32.2278 225.732 31.455 227.002 30.9289C228.272 30.4027 229.633 30.1337 231.007 30.1372H230.991ZM231.007 28.5101C228.617 28.5101 226.28 29.2195 224.292 30.5485C222.305 31.8774 220.756 33.7664 219.841 35.9764C218.926 38.1864 218.687 40.6182 219.153 42.9643C219.62 45.3105 220.771 47.4655 222.461 49.157C224.151 50.8485 226.305 52.0004 228.649 52.467C230.994 52.9337 233.424 52.6942 235.632 51.7788C237.841 50.8634 239.729 49.3132 241.057 47.3242C242.385 45.3353 243.094 42.9969 243.094 40.6048C243.094 39.0151 242.781 37.4408 242.173 35.9722C241.565 34.5036 240.673 33.1695 239.549 32.0461C238.425 30.9227 237.09 30.0322 235.622 29.4254C234.154 28.8187 232.58 28.5077 230.991 28.5101H231.007Z" fill="#6C63FF"/>
<path d="M166.475 49.3288C169.672 49.3309 172.769 50.442 175.239 52.4729C177.708 54.5037 179.398 57.3286 180.021 60.4664C180.643 63.6042 180.158 66.8608 178.65 69.6814C177.142 72.502 174.703 74.7121 171.75 75.9353C168.796 77.1585 165.51 77.3191 162.451 76.3898C159.392 75.4604 156.75 73.4986 154.974 70.8385C153.198 68.1784 152.399 64.9845 152.713 61.801C153.027 58.6175 154.433 55.6412 156.694 53.3792C157.975 52.0902 159.5 51.0684 161.179 50.3731C162.858 49.6779 164.658 49.3229 166.475 49.3288ZM166.475 47.1761C163.314 47.1761 160.225 48.1139 157.597 49.871C154.969 51.6281 152.921 54.1256 151.711 57.0475C150.502 59.9694 150.185 63.1847 150.802 66.2866C151.419 69.3885 152.941 72.2378 155.175 74.4742C157.41 76.7105 160.258 78.2335 163.357 78.8505C166.457 79.4675 169.67 79.1509 172.59 77.9406C175.51 76.7302 178.006 74.6807 179.762 72.051C181.517 69.4213 182.455 66.3296 182.455 63.1669C182.455 61.0669 182.042 58.9873 181.239 57.047C180.436 55.1067 179.259 53.3437 177.775 51.8588C176.291 50.3738 174.529 49.1959 172.59 48.3925C170.652 47.589 168.573 47.1757 166.475 47.1761Z" fill="#6C63FF"/>
<path d="M148.042 60.2684H57.0882V151.285H148.042V60.2684Z" fill="#F3F5F7"/>
<path d="M276.468 60.2684H185.515V151.285H276.468V60.2684Z" fill="#F3F5F7"/>
<path opacity="0.1" d="M38.4917 53.3603H8.15497V56.7341H38.4917V53.3603Z" fill="black"/>
<path opacity="0.1" d="M297.408 53.3603H267.071V56.7341H297.408V53.3603Z" fill="black"/>
<path d="M220.525 194.625C220.525 194.625 228.406 180.655 240.276 176.629C245.264 174.973 249.581 171.742 252.579 167.421C253.985 165.355 255.2 163.165 256.208 160.878" stroke="#535461" stroke-width="2" stroke-miterlimit="10"/>
<path d="M263.671 158.306C262.319 159.619 256.019 160.978 256.019 160.978C256.019 160.978 257.567 154.719 258.919 153.403C259.569 152.773 260.442 152.426 261.347 152.44C262.253 152.454 263.115 152.827 263.745 153.477C264.375 154.127 264.722 155.001 264.708 155.907C264.694 156.813 264.321 157.676 263.671 158.306Z" fill="#6C63FF"/>
<path d="M260.108 169.63C258.259 169.998 252.245 167.713 252.245 167.713C252.245 167.713 256.941 163.307 258.79 162.933C259.669 162.779 260.572 162.976 261.307 163.48C262.043 163.985 262.552 164.757 262.725 165.632C262.898 166.507 262.723 167.416 262.235 168.163C261.748 168.91 260.988 169.437 260.117 169.63H260.108Z" fill="#6C63FF"/>
<path d="M247.135 181.888C245.355 181.259 241.307 176.255 241.307 176.255C241.307 176.255 247.597 174.817 249.368 175.433C249.791 175.58 250.182 175.809 250.517 176.107C250.852 176.404 251.126 176.765 251.321 177.169C251.517 177.572 251.632 178.01 251.658 178.458C251.685 178.906 251.623 179.354 251.477 179.778C251.33 180.202 251.101 180.593 250.804 180.928C250.506 181.264 250.146 181.537 249.742 181.733C249.339 181.929 248.901 182.044 248.454 182.07C248.007 182.097 247.558 182.035 247.135 181.888Z" fill="#6C63FF"/>
<path d="M235.247 188.947C233.385 188.633 228.548 184.381 228.548 184.381C228.548 184.381 234.498 181.904 236.357 182.209C236.802 182.279 237.23 182.435 237.614 182.671C237.999 182.906 238.333 183.216 238.597 183.581C238.862 183.946 239.051 184.361 239.154 184.8C239.258 185.239 239.273 185.694 239.2 186.139C239.127 186.584 238.966 187.01 238.727 187.393C238.488 187.775 238.176 188.107 237.808 188.368C237.441 188.629 237.025 188.815 236.586 188.914C236.146 189.014 235.691 189.025 235.247 188.947Z" fill="#6C63FF"/>
<path d="M246.984 162.823C246.984 164.711 250.393 170.178 250.393 170.178C250.393 170.178 253.802 164.711 253.802 162.826C253.802 161.92 253.443 161.052 252.803 160.411C252.163 159.771 251.295 159.411 250.39 159.411C249.485 159.411 248.617 159.771 247.977 160.411C247.337 161.052 246.978 161.92 246.978 162.826L246.984 162.823Z" fill="#6C63FF"/>
<path d="M233.168 171.263C233.731 173.064 238.621 177.262 238.621 177.262C238.621 177.262 240.244 171.024 239.681 169.224C239.547 168.796 239.331 168.399 239.043 168.055C238.756 167.71 238.404 167.426 238.007 167.218C237.61 167.01 237.176 166.883 236.729 166.843C236.283 166.803 235.833 166.851 235.406 166.985C234.978 167.119 234.581 167.336 234.237 167.623C233.893 167.911 233.609 168.263 233.401 168.66C233.193 169.058 233.066 169.492 233.026 169.939C232.986 170.385 233.034 170.835 233.168 171.263Z" fill="#6C63FF"/>
<path d="M220.865 181.3C221.116 183.169 225.224 188.132 225.224 188.132C225.224 188.132 227.878 182.26 227.629 180.39C227.509 179.493 227.037 178.68 226.317 178.13C225.598 177.581 224.69 177.34 223.793 177.46C222.895 177.581 222.083 178.053 221.534 178.773C220.985 179.493 220.744 180.402 220.865 181.3Z" fill="#6C63FF"/>
<path opacity="0.25" d="M263.671 158.306C262.319 159.619 256.019 160.978 256.019 160.978C256.019 160.978 257.567 154.719 258.919 153.403C259.569 152.773 260.442 152.426 261.347 152.44C262.253 152.454 263.115 152.827 263.745 153.477C264.375 154.127 264.722 155.001 264.708 155.907C264.694 156.813 264.321 157.676 263.671 158.306Z" fill="black"/>
<path opacity="0.25" d="M260.108 169.63C258.259 169.998 252.245 167.713 252.245 167.713C252.245 167.713 256.941 163.307 258.79 162.933C259.669 162.779 260.572 162.976 261.307 163.48C262.043 163.985 262.552 164.757 262.725 165.632C262.898 166.507 262.723 167.416 262.235 168.163C261.748 168.91 260.988 169.437 260.117 169.63H260.108Z" fill="black"/>
<path opacity="0.25" d="M247.135 181.888C245.355 181.259 241.307 176.255 241.307 176.255C241.307 176.255 247.597 174.817 249.368 175.433C249.791 175.58 250.182 175.809 250.517 176.107C250.852 176.404 251.126 176.765 251.321 177.169C251.517 177.572 251.632 178.01 251.658 178.458C251.685 178.906 251.623 179.354 251.477 179.778C251.33 180.202 251.101 180.593 250.804 180.928C250.506 181.264 250.146 181.537 249.742 181.733C249.339 181.929 248.901 182.044 248.454 182.07C248.007 182.097 247.558 182.035 247.135 181.888Z" fill="black"/>
<path opacity="0.25" d="M235.247 188.947C233.385 188.633 228.548 184.381 228.548 184.381C228.548 184.381 234.498 181.904 236.357 182.209C236.802 182.279 237.23 182.435 237.614 182.671C237.999 182.906 238.333 183.216 238.597 183.581C238.862 183.946 239.051 184.361 239.154 184.8C239.258 185.239 239.273 185.694 239.2 186.139C239.127 186.584 238.966 187.01 238.727 187.393C238.488 187.775 238.176 188.107 237.808 188.368C237.441 188.629 237.025 188.815 236.586 188.914C236.146 189.014 235.691 189.025 235.247 188.947Z" fill="black"/>
<path opacity="0.25" d="M246.984 162.823C246.984 164.711 250.393 170.178 250.393 170.178C250.393 170.178 253.802 164.711 253.802 162.826C253.802 161.92 253.443 161.052 252.803 160.411C252.163 159.771 251.295 159.411 250.39 159.411C249.485 159.411 248.617 159.771 247.977 160.411C247.337 161.052 246.978 161.92 246.978 162.826L246.984 162.823Z" fill="black"/>
<path opacity="0.25" d="M233.168 171.263C233.731 173.064 238.621 177.262 238.621 177.262C238.621 177.262 240.244 171.024 239.681 169.224C239.547 168.796 239.331 168.399 239.043 168.055C238.756 167.71 238.404 167.426 238.007 167.218C237.61 167.01 237.176 166.883 236.729 166.843C236.283 166.803 235.833 166.851 235.406 166.985C234.978 167.119 234.581 167.336 234.237 167.623C233.893 167.911 233.609 168.263 233.401 168.66C233.193 169.058 233.066 169.492 233.026 169.939C232.986 170.385 233.034 170.835 233.168 171.263Z" fill="black"/>
<path opacity="0.25" d="M220.865 181.3C221.116 183.169 225.224 188.132 225.224 188.132C225.224 188.132 227.878 182.26 227.629 180.39C227.509 179.493 227.037 178.68 226.317 178.13C225.598 177.581 224.69 177.34 223.793 177.46C222.895 177.581 222.083 178.053 221.534 178.773C220.985 179.493 220.744 180.402 220.865 181.3Z" fill="black"/>
<path d="M220.978 194.348C220.978 194.348 222.528 178.382 231.746 169.888C235.637 166.347 238.275 161.64 239.266 156.472C239.715 154.015 239.94 151.523 239.936 149.025" stroke="#535461" stroke-width="2" stroke-miterlimit="10"/>
<path d="M245.716 143.647C245.012 145.397 239.804 149.192 239.804 149.192C239.804 149.192 238.681 142.844 239.386 141.094C239.553 140.678 239.801 140.3 240.115 139.979C240.428 139.659 240.802 139.404 241.214 139.228C241.627 139.053 242.07 138.96 242.518 138.956C242.966 138.951 243.411 139.035 243.826 139.203C244.242 139.371 244.621 139.618 244.941 139.932C245.261 140.247 245.516 140.621 245.691 141.033C245.867 141.446 245.959 141.889 245.964 142.337C245.968 142.786 245.884 143.231 245.716 143.647Z" fill="#6C63FF"/>
<path d="M247.044 155.446C245.503 156.531 239.071 156.887 239.071 156.887C239.071 156.887 241.587 150.945 243.119 149.863C243.859 149.374 244.761 149.193 245.633 149.359C246.504 149.524 247.277 150.023 247.788 150.749C248.298 151.475 248.506 152.371 248.367 153.248C248.228 154.125 247.753 154.913 247.044 155.446Z" fill="#6C63FF"/>
<path d="M240.147 171.912C238.26 172.069 232.539 169.126 232.539 169.126C232.539 169.126 237.697 165.265 239.574 165.108C240.025 165.061 240.481 165.106 240.915 165.237C241.348 165.369 241.751 165.587 242.1 165.876C242.449 166.166 242.737 166.522 242.947 166.924C243.156 167.326 243.284 167.766 243.322 168.218C243.36 168.67 243.308 169.125 243.168 169.557C243.028 169.988 242.804 170.388 242.509 170.731C242.213 171.075 241.852 171.357 241.446 171.559C241.041 171.762 240.599 171.882 240.147 171.912Z" fill="#6C63FF"/>
<path d="M232.127 183.194C230.3 183.667 224.154 181.734 224.154 181.734C224.154 181.734 228.589 177.057 230.413 176.582C231.282 176.375 232.197 176.517 232.963 176.978C233.728 177.438 234.283 178.181 234.507 179.046C234.731 179.911 234.608 180.83 234.163 181.605C233.718 182.38 232.987 182.95 232.127 183.191V183.194Z" fill="#6C63FF"/>
<path d="M232.287 154.546C233.052 156.27 238.382 159.896 238.382 159.896C238.382 159.896 239.291 153.513 238.53 151.789C238.164 150.96 237.483 150.311 236.638 149.985C235.794 149.659 234.854 149.681 234.026 150.048C233.199 150.415 232.55 151.096 232.224 151.941C231.898 152.786 231.921 153.727 232.287 154.555V154.546Z" fill="#6C63FF"/>
<path d="M223.072 167.858C224.33 169.274 230.488 171.131 230.488 171.131C230.488 171.131 229.444 164.768 228.202 163.351C227.605 162.671 226.762 162.255 225.858 162.197C224.955 162.138 224.066 162.441 223.385 163.038C222.705 163.636 222.29 164.479 222.231 165.383C222.173 166.287 222.475 167.177 223.072 167.858Z" fill="#6C63FF"/>
<path d="M215.892 182.027C216.877 183.635 222.645 186.508 222.645 186.508C222.645 186.508 222.695 180.06 221.701 178.452C221.227 177.68 220.467 177.128 219.586 176.918C218.706 176.707 217.778 176.856 217.007 177.33C216.236 177.804 215.685 178.565 215.474 179.446C215.264 180.327 215.412 181.255 215.886 182.027H215.892Z" fill="#6C63FF"/>
<path opacity="0.1" d="M99.1653 79.696H68.8286V83.0698H99.1653V79.696Z" fill="black"/>
<path opacity="0.1" d="M142.843 109.352H124.731V112.726H142.843V109.352Z" fill="black"/>
<path opacity="0.1" d="M151.552 131.993H124.731V135.367H151.552V131.993Z" fill="black"/>
<path opacity="0.1" d="M99.1653 91.5861H68.8286V94.9599H99.1653V91.5861Z" fill="black"/>
<path opacity="0.1" d="M235.681 79.696H205.344V83.0698H235.681V79.696Z" fill="black"/>
<path opacity="0.1" d="M235.681 91.5861H205.344V94.9599H235.681V91.5861Z" fill="black"/>
<path d="M162.176 67.8689L163.025 66.7548C163.842 67.5558 164.938 68.0072 166.082 68.0136C167.516 68.0136 168.579 67.3118 168.579 66.1757C168.579 64.942 167.56 64.13 164.736 64.13V62.8491C167.252 62.8491 168.195 62.0214 168.195 60.9293C168.195 59.9411 167.349 59.3243 166.094 59.3243C165.117 59.3531 164.183 59.7355 163.465 60.4006L162.562 59.3243C163.554 58.4371 164.833 57.9395 166.163 57.9238C168.337 57.9238 169.937 58.9686 169.937 60.8003C169.937 62.0906 168.994 62.9341 167.635 63.3999V63.4691C169.091 63.7838 170.312 64.75 170.312 66.2575C170.312 68.2465 168.425 69.4393 166.198 69.4393C164.305 69.4362 163.006 68.7155 162.176 67.8689Z" fill="#6C63FF"/>
<g opacity="0.8">
<path opacity="0.8" d="M231.995 38.8675C231.995 38.2633 232.048 37.4922 232.08 36.888H232.001C231.655 37.423 231.262 37.9549 230.91 38.4867L228.394 41.7157H235.074V43.0155H226.67V41.914L231.687 35.3049H233.533V45.8134H231.995V38.8675Z" fill="#6C63FF"/>
</g>
<g opacity="0.5">
<path opacity="0.5" d="M289.923 16.3274L290.492 15.55C291.042 16.0899 291.781 16.3936 292.552 16.3966C293.565 16.3966 294.36 15.7924 294.36 14.801C294.36 13.8096 293.659 13.2746 292.618 13.2746C292.091 13.2702 291.574 13.4225 291.134 13.7121L290.542 13.3313L290.781 9.61444H295.184V10.6373H291.819L291.634 12.6735C292.043 12.4873 292.489 12.3928 292.939 12.3965C294.382 12.3965 295.559 13.1393 295.559 14.7821C295.559 16.4249 294.181 17.3848 292.693 17.3848C292.185 17.3998 291.678 17.314 291.203 17.1326C290.727 16.9511 290.292 16.6775 289.923 16.3274Z" fill="#6C63FF"/>
</g>
<path opacity="0.1" d="M221.613 89.1659H109.182V201.675H221.613V89.1659Z" fill="#6C63FF"/>
<path d="M225.387 83.8157H112.956V196.324H225.387V83.8157Z" fill="white"/>
<path opacity="0.5" d="M213.609 96.2785H124.731V99.6523H213.609V96.2785Z" fill="#6C63FF"/>
<path opacity="0.1" d="M181.326 120.672H124.731V124.046H181.326V120.672Z" fill="black"/>
<path opacity="0.1" d="M179.643 143.316H124.731V146.69H179.643V143.316Z" fill="black"/>
<path opacity="0.1" d="M199.585 154.637H124.731V158.011H199.585V154.637Z" fill="black"/>
<path opacity="0.5" d="M197.356 120.971L196.969 120.572C196.952 120.556 196.929 120.547 196.906 120.547C196.883 120.547 196.862 120.556 196.846 120.572L194.163 123.278L193.185 122.299C193.168 122.284 193.146 122.275 193.122 122.274C193.1 122.275 193.079 122.284 193.063 122.299L192.67 122.693C192.661 122.701 192.655 122.711 192.65 122.722C192.645 122.732 192.643 122.744 192.643 122.756C192.643 122.768 192.645 122.779 192.65 122.79C192.655 122.801 192.661 122.811 192.67 122.819L193.902 124.049C193.969 124.122 194.062 124.167 194.16 124.175C194.257 124.167 194.348 124.123 194.415 124.052L197.356 121.097C197.37 121.079 197.378 121.057 197.378 121.034C197.378 121.011 197.37 120.989 197.356 120.971Z" fill="#3ACC6C"/>
<path opacity="0.5" d="M195.013 118.391C195.93 118.39 196.818 118.708 197.527 119.289C198.237 119.871 198.722 120.681 198.902 121.58C199.081 122.48 198.943 123.415 198.511 124.224C198.079 125.033 197.38 125.668 196.533 126.019C195.686 126.371 194.744 126.417 193.866 126.151C192.989 125.885 192.23 125.323 191.721 124.56C191.211 123.797 190.982 122.881 191.072 121.968C191.162 121.054 191.565 120.201 192.214 119.552C192.58 119.183 193.016 118.89 193.497 118.691C193.977 118.491 194.492 118.389 195.013 118.391ZM195.013 117.777C194.107 117.776 193.222 118.044 192.469 118.547C191.716 119.05 191.129 119.765 190.782 120.602C190.436 121.439 190.345 122.36 190.521 123.249C190.698 124.137 191.134 124.953 191.774 125.594C192.414 126.235 193.23 126.671 194.117 126.847C195.005 127.024 195.926 126.933 196.762 126.586C197.598 126.239 198.313 125.652 198.816 124.898C199.318 124.145 199.586 123.259 199.585 122.353C199.584 121.14 199.101 119.978 198.244 119.121C197.386 118.265 196.224 117.783 195.013 117.783V117.777Z" fill="#3ACC6C"/>
<path opacity="0.5" d="M197.356 143.612L196.969 143.216C196.961 143.207 196.951 143.201 196.94 143.196C196.929 143.192 196.918 143.19 196.906 143.191C196.895 143.19 196.884 143.192 196.873 143.196C196.863 143.201 196.854 143.207 196.846 143.216L194.163 145.919L193.185 144.943C193.177 144.935 193.168 144.928 193.157 144.923C193.146 144.918 193.134 144.915 193.122 144.915C193.111 144.915 193.1 144.918 193.09 144.923C193.079 144.928 193.07 144.935 193.063 144.943L192.67 145.334C192.661 145.342 192.655 145.352 192.65 145.363C192.645 145.373 192.643 145.385 192.643 145.397C192.643 145.408 192.645 145.42 192.65 145.431C192.655 145.442 192.661 145.451 192.67 145.46L193.902 146.693C193.969 146.766 194.062 146.811 194.16 146.819C194.257 146.81 194.347 146.766 194.415 146.696L197.356 143.738C197.37 143.72 197.378 143.698 197.378 143.675C197.378 143.652 197.37 143.63 197.356 143.612Z" fill="#3ACC6C"/>
<path opacity="0.5" d="M195.013 141.05C195.93 141.05 196.818 141.367 197.527 141.949C198.237 142.531 198.722 143.34 198.902 144.24C199.081 145.14 198.943 146.074 198.511 146.884C198.079 147.693 197.38 148.328 196.533 148.679C195.686 149.03 194.744 149.077 193.866 148.811C192.989 148.545 192.23 147.982 191.721 147.219C191.211 146.457 190.982 145.54 191.072 144.627C191.162 143.714 191.565 142.86 192.214 142.212C192.58 141.842 193.016 141.55 193.497 141.35C193.977 141.151 194.492 141.049 195.013 141.05ZM195.013 140.421C194.107 140.42 193.222 140.688 192.469 141.191C191.717 141.694 191.13 142.409 190.783 143.246C190.436 144.082 190.345 145.003 190.521 145.892C190.697 146.78 191.133 147.596 191.773 148.237C192.412 148.878 193.228 149.314 194.116 149.491C195.003 149.668 195.924 149.577 196.76 149.231C197.596 148.884 198.311 148.298 198.814 147.544C199.317 146.791 199.585 145.906 199.585 145C199.586 144.399 199.468 143.804 199.238 143.248C199.009 142.692 198.672 142.188 198.247 141.762C197.823 141.337 197.318 141 196.763 140.77C196.208 140.539 195.613 140.421 195.013 140.421Z" fill="#3ACC6C"/>
<path opacity="0.1" d="M161.185 250C173.588 250 183.643 248.312 183.643 246.229C183.643 244.147 173.588 242.459 161.185 242.459C148.781 242.459 138.726 244.147 138.726 246.229C138.726 248.312 148.781 250 161.185 250Z" fill="#6C63FF"/>
<path opacity="0.1" d="M185.82 145.334C185.609 144.903 183.933 139.354 183.933 139.354L180.703 131.149C180.703 131.149 178.743 120.351 175.819 123.045C172.894 125.739 177.391 132.204 177.391 132.204C177.391 132.204 179.237 136.924 179.143 137.869C179.049 138.813 180.171 142.275 180.171 142.275L179.806 144.264C179.332 144.232 179.023 144.232 179.023 144.232C179.023 144.232 178.734 144.648 178.457 144.676C178.41 144.682 178.362 144.676 178.319 144.657C178.004 144.515 176.963 144.544 176.432 144.544C175.938 144.477 175.46 144.324 175.02 144.091C174.837 143.725 173.806 143.508 172.891 143.386C172.196 141.655 171.217 139.971 171.082 138.164C171.016 137.673 171.113 137.173 171.359 136.742C171.42 136.65 171.489 136.563 171.567 136.484C171.821 136.226 172.133 135.999 172.416 135.76C172.557 135.64 172.686 135.518 172.809 135.392C175.208 133.063 174.828 129.456 172.652 126.96C170.136 124.074 158.788 117.865 155.354 123.184C154.876 123.927 154.86 124.786 154.725 125.61C154.383 127.627 153.437 129.492 152.014 130.961C150.876 132.172 149.382 133.289 148.727 134.662L148.705 134.611C148.55 134.909 148.435 135.227 148.366 135.555C148.036 137.227 149.161 138.835 149.753 140.462C149.954 141.015 150.099 141.586 150.187 142.168L150.224 141.809C150.369 142.64 150.419 143.484 150.372 144.327C146.252 145.17 146.249 152.276 146.249 152.276C146.249 152.276 145.743 155.109 145.828 156.119C145.913 157.129 145.913 159.339 145.913 159.877C145.913 160.415 145.403 163.72 145.347 164.116C145.274 164.554 144.501 166.65 146.369 167.122C146.498 167.156 146.636 167.185 146.778 167.21C146.856 168.906 147.004 172.466 146.875 173.252C146.875 173.252 147.554 178.03 148.117 179.232C148.479 179.943 148.9 180.622 149.375 181.262C149.335 181.552 149.238 181.831 149.089 182.083C148.803 182.502 148.951 182.845 149.432 182.993C149.417 183.138 149.398 183.301 149.375 183.484C149.171 185.328 148.863 188.988 149.375 190.845C150.096 193.388 150.136 194.235 150.136 194.235C150.136 194.648 150.238 195.056 150.432 195.421C150.747 195.846 151.281 199.786 151.281 200.422C151.281 201.058 152.722 206.779 152.297 208.136C151.872 209.492 152.212 211.399 152.212 211.399C152.212 211.399 151.957 214.748 151.662 215.469C151.366 216.189 151.237 227.803 151.703 230.811C152.168 233.82 152.467 236.322 152.467 236.322C152.467 236.322 152.152 239.076 152.423 239.469C152.693 239.863 153.143 242.141 152.803 242.267C152.464 242.393 152.297 243.328 152.297 243.328C152.476 243.601 152.669 243.865 152.876 244.118C152.744 244.071 152.616 244.017 152.492 243.954C152.627 244.146 152.829 244.41 153.074 244.7L152.844 247.746C152.834 247.866 152.867 247.985 152.936 248.082C153.005 248.18 153.106 248.251 153.222 248.281C153.965 248.485 154.75 248.482 155.492 248.272C156.234 248.062 156.904 247.652 157.43 247.089C159.546 244.926 160.26 245.225 160.65 243.91C160.688 243.768 160.726 243.633 160.754 243.501C160.812 243.247 160.798 242.982 160.711 242.737C160.625 242.491 160.471 242.275 160.268 242.114C160.064 241.953 159.818 241.852 159.56 241.825C159.301 241.797 159.04 241.844 158.807 241.959C158.942 241.014 159.049 239.979 158.946 239.384C158.735 238.157 158.776 234.934 158.776 234.934L158.48 219.513C158.48 219.513 159.031 216.463 159.666 215.277C160.301 214.09 160.216 209.927 160.216 209.927L160.936 196.277L161.653 189.668C161.653 189.668 162.33 187.38 163.176 189.923C163.176 189.923 162.71 195.05 162.924 196.28C163.138 197.511 163.43 203.484 163.22 204.8C163.009 206.115 162.075 213.319 162.669 215.141C163.264 216.964 163.896 219.167 163.77 219.887C163.644 220.608 163.22 236.253 163.22 236.253C163.22 236.253 164.361 239.261 163.515 240.237C162.669 241.213 163.474 245.112 163.474 245.112C163.474 245.112 163.575 245.185 163.751 245.288L163.726 245.603L163.462 249.109C163.453 249.228 163.485 249.347 163.554 249.445C163.623 249.542 163.724 249.613 163.839 249.644C164.583 249.847 165.368 249.844 166.109 249.634C166.851 249.423 167.521 249.015 168.047 248.451C170.164 246.289 170.878 246.585 171.268 245.273C171.305 245.131 171.343 244.993 171.375 244.86C171.439 244.58 171.413 244.286 171.302 244.021C171.191 243.755 170.999 243.531 170.754 243.381C170.509 243.23 170.223 243.159 169.936 243.179C169.65 243.199 169.376 243.308 169.154 243.491C169.14 243.507 169.124 243.52 169.107 243.532C169.054 243.579 168.997 243.62 168.94 243.661L168.859 243.715C169.069 242.745 169.378 241.093 169.233 240.313C169.022 239.167 169.444 235.693 169.444 235.693C169.444 235.693 170.673 231.538 170.702 229.886C170.73 228.234 171.041 216.668 171.041 216.668C171.041 216.668 171 211.286 171.17 209.974C171.34 208.661 172.692 197.3 174.048 193.923C175.089 191.324 175.554 184.699 175.278 181.334C175.262 181.164 175.246 181.02 175.23 180.856C176.888 179.61 177.064 177.558 177.064 177.558C177.064 177.558 175.539 174.618 174.07 173.375C172.601 172.132 172.262 169.986 172.318 169.079C172.344 168.526 172.164 167.983 171.812 167.556C171.812 167.556 171.133 165.353 170.68 165.126C170.642 165.108 170.609 165.082 170.582 165.051C170.268 164.717 170.51 163.77 170.51 163.77V163.742C170.56 163.521 170.89 162.099 170.783 161.734C170.677 161.369 170.84 159.474 170.84 159.474C170.84 159.474 171.916 156.254 171.746 153.712C171.576 151.169 173.947 151.392 173.947 151.392L181.272 151.317H182.105C182.457 151.016 182.773 150.677 183.049 150.306C183.332 150.359 183.622 150.352 183.902 150.283C184.181 150.215 184.442 150.087 184.669 149.91C186.222 148.487 186.03 145.771 185.82 145.334ZM151.756 167.364L151.81 166.074L152.096 166.319C152.183 166.658 152.183 167.013 152.096 167.351C152.051 167.511 151.972 167.658 151.863 167.782C151.754 167.906 151.619 168.004 151.467 168.069C151.43 168.087 151.396 168.108 151.363 168.132L151.291 167.395C151.589 167.377 151.756 167.361 151.756 167.361V167.364Z" fill="black"/>
<path d="M179.234 147.836C179.234 147.836 183.404 150.52 184.983 149.095C186.562 147.669 186.367 144.918 186.153 144.484C185.939 144.05 184.241 138.463 184.241 138.463L180.961 130.193C180.961 130.193 178.967 119.306 175.992 122.01C173.016 124.713 177.596 131.241 177.596 131.241C177.596 131.241 179.483 136.002 179.376 136.956C179.269 137.91 180.42 141.403 180.42 141.403L179.234 147.836Z" fill="url(#paint0_linear)"/>
<path d="M171.456 244.823C171.425 244.958 171.39 245.096 171.346 245.238C170.96 246.563 170.227 246.264 168.076 248.442C167.538 249.011 166.857 249.424 166.103 249.636C165.35 249.847 164.553 249.85 163.798 249.644C163.682 249.613 163.579 249.543 163.509 249.445C163.439 249.346 163.406 249.226 163.415 249.106L163.685 245.572L163.814 243.869C163.814 243.869 167.239 244.832 168.984 243.614C169.041 243.573 169.098 243.532 169.151 243.485L169.201 243.444C169.426 243.26 169.702 243.15 169.992 243.13C170.282 243.11 170.57 243.181 170.818 243.332C171.066 243.484 171.26 243.709 171.375 243.976C171.489 244.243 171.518 244.539 171.456 244.823Z" fill="url(#paint1_linear)"/>
<path d="M160.71 243.488C160.682 243.624 160.644 243.762 160.603 243.904C160.216 245.229 159.483 244.93 157.332 247.107C156.795 247.676 156.113 248.089 155.36 248.301C154.607 248.513 153.81 248.517 153.055 248.313C152.937 248.283 152.834 248.212 152.764 248.113C152.694 248.014 152.661 247.893 152.671 247.772L152.939 244.237L153.071 242.535C153.071 242.535 156.496 243.498 158.238 242.28C158.298 242.239 158.351 242.198 158.408 242.151L158.458 242.11C158.682 241.925 158.959 241.815 159.248 241.794C159.538 241.774 159.827 241.844 160.075 241.996C160.323 242.148 160.517 242.373 160.631 242.641C160.745 242.908 160.772 243.204 160.71 243.488Z" fill="url(#paint2_linear)"/>
<g opacity="0.1">
<path opacity="0.1" d="M157.162 244.02L157.304 245.855C155.335 247.806 152.995 244.911 152.303 243.948C154.105 244.873 157.162 244.02 157.162 244.02Z" fill="url(#paint3_linear)"/>
</g>
<g opacity="0.1">
<path opacity="0.1" d="M168.72 244.766L168.981 244.596C167.182 247.309 164.515 246.056 163.685 245.572L163.814 243.869C163.814 243.869 167.239 244.832 168.984 243.614C168.846 244.278 168.72 244.766 168.72 244.766Z" fill="url(#paint4_linear)"/>
</g>
<path d="M174.189 193.448C172.812 196.866 171.434 208.318 171.261 209.643C171.088 210.968 171.133 216.394 171.133 216.394L170.774 229.726C170.733 231.394 169.485 235.579 169.485 235.579C169.485 235.579 169.054 239.085 169.268 240.237C169.481 241.389 168.708 244.426 168.708 244.426L168.969 244.256C166.814 247.501 163.415 245.065 163.415 245.065C163.415 245.065 162.597 241.134 163.456 240.152C164.314 239.17 163.157 236.136 163.157 236.136C163.157 236.136 163.584 220.369 163.717 219.642C163.849 218.915 163.226 216.693 162.597 214.855C161.968 213.017 162.94 205.753 163.157 204.428C163.374 203.104 163.069 197.08 162.842 195.84C162.616 194.6 163.1 189.429 163.1 189.429C162.238 186.867 161.55 189.174 161.55 189.174L160.861 195.884L160.153 209.659C160.153 209.659 160.241 213.845 159.593 215.041C158.946 216.237 158.389 219.315 158.389 219.315L158.703 234.868C158.703 234.868 158.659 238.116 158.876 239.356C159.093 240.596 158.402 243.8 158.402 243.8C155.992 249.44 152.111 243.331 152.111 243.331C152.111 243.331 152.281 242.387 152.627 242.261C152.973 242.135 152.498 239.825 152.24 239.428C151.983 239.032 152.281 236.281 152.281 236.281C152.281 236.281 151.983 233.763 151.508 230.723C151.033 227.683 151.165 215.982 151.464 215.255C151.762 214.528 152.023 211.163 152.023 211.163C152.023 211.163 151.681 209.241 152.111 207.872C152.542 206.502 151.077 200.737 151.077 200.095C151.077 199.453 150.517 195.481 150.215 195.059C150.012 194.693 149.904 194.282 149.901 193.863C149.901 193.863 149.857 193.007 149.124 190.446C148.589 188.557 148.904 184.881 149.124 183.024C149.199 182.335 149.262 181.898 149.262 181.898C149.262 181.898 173.972 177.923 174.963 178.823C175.196 179.031 175.35 179.767 175.438 180.793C175.718 184.148 175.243 190.829 174.189 193.448Z" fill="url(#paint5_linear)"/>
<g opacity="0.1">
<path opacity="0.1" d="M164.846 212.662C164.962 212.662 167.676 212.891 168.692 212.69C169.708 212.488 164.846 212.662 164.846 212.662Z" fill="url(#paint6_linear)"/>
</g>
<g opacity="0.1">
<path opacity="0.1" d="M165.047 214.257C165.047 214.257 168.821 214.912 169.01 214.572C169.198 214.232 165.047 214.257 165.047 214.257Z" fill="url(#paint7_linear)"/>
</g>
<g opacity="0.1">
<path opacity="0.1" d="M153.539 213.574C153.539 213.574 155.489 213.659 156.552 214.144C157.615 214.628 153.539 213.574 153.539 213.574Z" fill="url(#paint8_linear)"/>
</g>
<path d="M146.451 165.658C146.451 165.658 146.765 171.613 146.595 172.664C146.595 172.664 147.284 177.479 147.853 178.703C148.367 179.68 148.972 180.605 149.662 181.467L151.354 169.646L150.96 165.599L146.451 165.658Z" fill="url(#paint9_linear)"/>
<path d="M164.245 138.536C167.906 138.536 170.875 135.589 170.875 131.955C170.875 128.321 167.906 125.374 164.245 125.374C160.583 125.374 157.615 128.321 157.615 131.955C157.615 135.589 160.583 138.536 164.245 138.536Z" fill="url(#paint10_linear)"/>
<path d="M160.801 135.033C160.801 135.033 158.735 139.049 156.669 140.931C154.602 142.813 169.066 144.947 169.409 144.947C169.752 144.947 166.827 136.402 167.343 135.376C167.859 134.35 160.801 135.033 160.801 135.033Z" fill="url(#paint11_linear)"/>
<g opacity="0.1">
<path opacity="0.1" d="M175.438 180.762C175.114 181.008 174.756 181.208 174.375 181.353C171.736 182.379 168.865 183.805 166.912 183.242C164.959 182.678 160.83 183.242 160.83 183.242C160.83 183.242 152.505 182.556 150.841 182.955C150.283 183.125 149.69 183.14 149.124 182.999C149.199 182.31 149.262 181.873 149.262 181.873C149.262 181.873 173.973 177.898 174.963 178.798C175.196 178.999 175.35 179.726 175.438 180.762Z" fill="url(#paint12_linear)"/>
</g>
<path d="M177.246 176.966C177.246 176.966 177.017 179.799 174.375 180.84C171.733 181.882 168.865 183.292 166.912 182.729C164.959 182.165 160.829 182.729 160.829 182.729C160.829 182.729 152.505 182.042 150.841 182.442C149.177 182.842 148.325 182.329 148.831 181.586C149.338 180.843 149.294 178.398 149.294 177.372C149.294 176.346 148.718 172.186 149.234 171.446C149.75 170.706 150.209 167.858 151.243 167.402C151.398 167.337 151.537 167.239 151.648 167.113C151.76 166.988 151.842 166.839 151.888 166.678C151.978 166.337 151.978 165.978 151.888 165.636C151.888 165.636 151.715 165.495 151.473 165.281C150.866 164.742 149.834 163.742 150.165 163.414C150.624 162.958 150.165 159.993 150.165 159.993C150.165 159.993 149.073 157.715 149.476 156.862C149.879 156.009 145.976 151.512 145.976 151.512C145.976 151.512 145.976 143.763 150.693 143.42C150.693 143.42 154.021 143.537 154.423 142.054C154.826 140.572 157.464 139.716 157.464 139.716L163.49 141.028C163.49 141.028 168.837 142.168 169.805 141.485C170.774 140.802 171.529 142.394 171.529 142.394C171.529 142.394 174.856 142.567 175.202 143.25C175.548 143.933 174.111 150.599 174.111 150.599C174.111 150.599 171.699 150.372 171.872 152.937C172.045 155.502 170.953 158.747 170.953 158.747C170.953 158.747 170.78 160.635 170.897 161.026C171.013 161.416 170.67 162.826 170.617 163.049V163.078C170.617 163.078 170.378 164.022 170.689 164.371C170.719 164.401 170.753 164.426 170.79 164.447C171.249 164.673 171.938 166.895 171.938 166.895C172.297 167.325 172.482 167.874 172.457 168.434C172.4 169.347 172.743 171.509 174.233 172.765C175.724 174.02 177.246 176.966 177.246 176.966Z" fill="url(#paint13_linear)"/>
<path d="M151.643 163.776V164.019L151.536 166.684C151.536 166.684 148.007 166.967 146.083 166.483C144.158 165.998 144.972 163.893 145.048 163.452C145.104 163.052 145.62 159.719 145.62 159.178C145.62 158.637 145.62 156.415 145.535 155.402C145.45 154.388 145.966 151.527 145.966 151.527L146.337 151.071L150.385 152.61L151.643 163.776Z" fill="url(#paint14_linear)"/>
<g opacity="0.1">
<path opacity="0.1" d="M151.637 164.025L151.53 166.691C151.53 166.691 148.001 166.974 146.076 166.489C144.151 166.004 144.966 163.899 145.042 163.458L151.637 164.025Z" fill="url(#paint15_linear)"/>
</g>
<g opacity="0.1">
<path opacity="0.1" d="M151.904 166.672C151.994 166.33 151.994 165.971 151.904 165.63C151.904 165.63 151.731 165.488 151.489 165.274C154.53 164.856 166.566 163.213 170.623 163.037V163.065C170.623 163.065 170.384 164.009 170.695 164.358L151.904 166.672Z" fill="url(#paint16_linear)"/>
</g>
<g opacity="0.1">
<path opacity="0.1" d="M171.048 168.746C171.048 168.746 171.793 172.935 169.01 174.411C169.01 174.411 170.588 172.324 171.048 168.746Z" fill="url(#paint17_linear)"/>
</g>
<g opacity="0.1">
<path opacity="0.1" d="M152.822 174.518C152.822 174.518 159.537 173.378 160.858 174.26C162.179 175.141 152.822 174.518 152.822 174.518Z" fill="url(#paint18_linear)"/>
</g>
<g opacity="0.1">
<path opacity="0.1" d="M168.72 148.566C168.72 148.566 167.689 152.78 168.462 153.749C169.236 154.719 168.72 148.566 168.72 148.566Z" fill="url(#paint19_linear)"/>
</g>
<g opacity="0.1">
<path opacity="0.1" d="M149.262 145.117C149.262 145.117 150.206 146.69 149.636 148.308C149.067 149.925 149.262 145.117 149.262 145.117Z" fill="url(#paint20_linear)"/>
</g>
<path d="M147.312 158.848C147.312 158.848 148.517 159.562 148.114 160.673C147.712 161.784 147.312 158.848 147.312 158.848Z" fill="url(#paint21_linear)"/>
<g opacity="0.1">
<path opacity="0.1" d="M147.186 155.6C147.186 155.6 148.306 156.201 148.444 157.082C148.583 157.963 147.186 155.6 147.186 155.6Z" fill="url(#paint22_linear)"/>
</g>
<g opacity="0.1">
<path opacity="0.1" d="M163.786 189.671C163.786 189.671 170.818 190.386 172.224 188.727C172.224 188.733 165.88 189.986 163.786 189.671Z" fill="url(#paint23_linear)"/>
</g>
<g opacity="0.1">
<path opacity="0.1" d="M151.646 189.275C151.646 189.275 159.194 191.04 160.685 189.643C160.685 189.643 154.2 190.128 151.646 189.275Z" fill="url(#paint24_linear)"/>
</g>
<g opacity="0.1">
<path opacity="0.1" d="M164.33 191.981C164.33 191.981 167.475 191.981 168.95 192.066C170.425 192.151 164.33 191.981 164.33 191.981Z" fill="url(#paint25_linear)"/>
</g>
<g opacity="0.1">
<path opacity="0.1" d="M152.162 193.319C152.162 193.319 153.712 195.056 155.461 194.745C157.21 194.433 152.162 193.319 152.162 193.319Z" fill="url(#paint26_linear)"/>
</g>
<path d="M155.206 122.167C154.719 122.916 154.703 123.782 154.577 124.613C154.231 126.655 153.27 128.542 151.822 130.023C150.445 131.477 148.555 132.792 148.199 134.567C147.863 136.254 149.007 137.875 149.608 139.515C151.181 143.842 148.979 148.377 148.334 152.843C148.158 154.077 148.372 155.653 149.907 156.062C150.385 156.191 150.932 156.176 151.36 156.377C151.939 156.651 152.115 157.221 152.222 157.734C152.605 159.567 152.737 161.444 152.615 163.314C152.546 164.365 152.47 165.57 153.467 166.291C153.976 166.605 154.536 166.826 155.121 166.945C156.694 167.367 158.729 167.704 159.789 166.719C160.235 166.307 160.418 165.721 160.955 165.394C161.786 164.906 162.965 165.237 164.012 165.287C165.002 165.329 165.985 165.106 166.859 164.64C167.734 164.174 168.467 163.482 168.985 162.637C169.831 161.123 169.758 159.398 169.444 157.768C169.129 156.138 168.588 154.527 168.547 152.878C168.498 152.3 168.628 151.721 168.918 151.219C169.547 150.237 171.048 149.79 172.063 149.016C173.969 147.568 173.95 145.195 173.271 143.209C172.592 141.223 171.334 139.326 171.18 137.274C171.112 136.777 171.212 136.272 171.463 135.839C171.796 135.427 172.185 135.064 172.62 134.762C175.403 132.43 175.076 128.597 172.774 125.975C170.22 123.058 158.681 116.795 155.206 122.167Z" fill="url(#paint27_linear)"/>
<g opacity="0.1">
<path opacity="0.1" d="M149.96 141.305C150.234 139.583 150.084 137.82 149.523 136.169C149.209 135.341 148.778 134.517 148.46 133.689C148.3 133.986 148.184 134.304 148.114 134.633C147.775 136.317 148.922 137.938 149.523 139.581C149.726 140.14 149.872 140.717 149.96 141.305Z" fill="url(#paint28_linear)"/>
<path opacity="0.1" d="M152.533 159.968C152.656 158.099 152.522 156.221 152.137 154.388C152.03 153.875 151.854 153.306 151.278 153.032C150.847 152.827 150.3 152.843 149.822 152.717C149.53 152.647 149.258 152.511 149.025 152.32C148.793 152.13 148.608 151.889 148.482 151.616C148.397 152.05 148.319 152.484 148.256 152.915C148.076 154.149 148.29 155.726 149.828 156.135C150.306 156.264 150.854 156.248 151.284 156.45C151.86 156.723 152.036 157.293 152.143 157.806C152.321 158.656 152.445 159.517 152.514 160.384C152.508 160.248 152.533 160.107 152.533 159.968Z" fill="url(#paint29_linear)"/>
<path opacity="0.1" d="M168.887 159.304C168.37 160.149 167.637 160.841 166.763 161.307C165.89 161.773 164.907 161.996 163.918 161.954C162.871 161.904 161.691 161.573 160.861 162.061C160.307 162.376 160.138 162.974 159.694 163.386C158.634 164.371 156.599 164.034 155.027 163.613C154.441 163.494 153.881 163.273 153.373 162.958C152.938 162.644 152.646 162.171 152.558 161.642C152.558 162.228 152.558 162.816 152.52 163.402C152.451 164.45 152.376 165.655 153.373 166.376C153.881 166.691 154.441 166.912 155.027 167.03C156.599 167.455 158.634 167.789 159.694 166.804C160.138 166.392 160.323 165.809 160.861 165.482C161.691 164.991 162.871 165.321 163.918 165.375C164.908 165.418 165.891 165.194 166.764 164.727C167.638 164.261 168.371 163.568 168.887 162.722C169.702 161.268 169.667 159.619 169.384 158.045C169.275 158.485 169.108 158.908 168.887 159.304Z" fill="url(#paint30_linear)"/>
<path opacity="0.1" d="M172.532 131.42C172.096 131.722 171.706 132.085 171.372 132.496C171.122 132.93 171.023 133.435 171.092 133.931C171.145 134.555 171.277 135.169 171.485 135.76C171.806 135.422 172.156 135.114 172.532 134.838C174.419 133.264 174.872 130.998 174.262 128.887C173.939 129.879 173.339 130.758 172.532 131.42Z" fill="url(#paint31_linear)"/>
<path opacity="0.1" d="M171.975 145.674C170.956 146.445 169.459 146.892 168.83 147.877C168.539 148.378 168.409 148.957 168.459 149.535C168.483 150.202 168.565 150.866 168.705 151.518C168.742 151.441 168.784 151.367 168.83 151.295C169.459 150.316 170.956 149.866 171.975 149.091C173.715 147.77 173.862 145.677 173.347 143.81C173.084 144.554 172.606 145.202 171.975 145.674Z" fill="url(#paint32_linear)"/>
</g>
<path d="M185.081 146.372C183.904 149.334 182.382 150.501 182.382 150.501H181.536L174.089 150.577L173.227 148.242L174.435 143.206L175.177 143.253C175.625 143.489 176.11 143.643 176.611 143.71C177.155 143.71 178.218 143.681 178.533 143.823C178.577 143.843 178.626 143.85 178.674 143.842C178.954 143.814 179.253 143.395 179.253 143.395C179.253 143.395 186.257 143.408 185.081 146.372Z" fill="url(#paint33_linear)"/>
<g opacity="0.1">
<path opacity="0.1" d="M185.081 146.372C183.904 149.334 182.382 150.501 182.382 150.501H181.536C181.977 149.328 182.907 146.917 183.272 146.363C183.637 145.809 180.502 144.525 178.677 143.817C178.957 143.788 179.256 143.37 179.256 143.37C179.256 143.37 186.257 143.408 185.081 146.372Z" fill="url(#paint34_linear)"/>
</g>
<path d="M179.014 148.667C179.014 148.667 183.102 151.329 184.675 149.907C186.247 148.484 186.037 145.765 185.826 145.334C185.615 144.903 183.939 139.354 183.939 139.354L180.709 131.149C180.709 131.149 178.75 120.351 175.825 123.045C172.9 125.739 177.397 132.204 177.397 132.204C177.397 132.204 179.243 136.924 179.149 137.869C179.055 138.813 180.178 142.275 180.178 142.275L179.014 148.667Z" fill="#EFB7B9"/>
<path d="M171.362 244.864C171.331 244.996 171.293 245.134 171.255 245.276C170.872 246.588 170.151 246.292 168.035 248.454C167.508 249.018 166.838 249.427 166.097 249.637C165.355 249.847 164.57 249.851 163.827 249.647C163.711 249.616 163.61 249.546 163.542 249.448C163.473 249.35 163.44 249.231 163.449 249.112L163.713 245.606L163.842 243.919C163.842 243.919 167.214 244.864 168.928 243.664C168.985 243.624 169.041 243.583 169.095 243.535C169.112 243.524 169.128 243.51 169.142 243.495C169.364 243.311 169.637 243.202 169.924 243.182C170.211 243.162 170.497 243.233 170.742 243.384C170.987 243.535 171.178 243.759 171.289 244.024C171.401 244.289 171.426 244.583 171.362 244.864Z" fill="#6C63FF"/>
<path d="M160.779 243.542C160.751 243.674 160.713 243.809 160.675 243.951C160.292 245.266 159.571 244.967 157.455 247.13C156.929 247.693 156.259 248.103 155.517 248.313C154.775 248.523 153.99 248.526 153.247 248.322C153.131 248.292 153.03 248.221 152.961 248.123C152.892 248.026 152.86 247.907 152.869 247.787L153.134 244.281L153.263 242.594C153.263 242.594 156.634 243.539 158.348 242.34C158.406 242.301 158.462 242.259 158.515 242.214L158.562 242.17C158.784 241.987 159.058 241.879 159.344 241.859C159.631 241.84 159.916 241.911 160.161 242.062C160.405 242.214 160.596 242.438 160.707 242.703C160.818 242.968 160.843 243.261 160.779 243.542Z" fill="#6C63FF"/>
<path opacity="0.1" d="M157.298 244.067L157.436 245.89C155.502 247.822 153.197 244.945 152.517 244.001C154.297 244.908 157.298 244.067 157.298 244.067Z" fill="black"/>
<path opacity="0.1" d="M168.67 244.807L168.925 244.64C167.157 247.328 164.522 246.088 163.714 245.606L163.842 243.919C163.842 243.919 167.214 244.864 168.928 243.664C168.793 244.322 168.67 244.807 168.67 244.807Z" fill="black"/>
<path d="M174.048 193.923C172.692 197.313 171.337 208.671 171.17 209.974C171.004 211.277 171.041 216.668 171.041 216.668L170.702 229.886C170.661 231.538 169.444 235.693 169.444 235.693C169.444 235.693 169.022 239.155 169.233 240.313C169.444 241.471 168.683 244.467 168.683 244.467L168.937 244.297C166.821 247.517 163.474 245.103 163.474 245.103C163.474 245.103 162.669 241.203 163.515 240.228C164.361 239.252 163.22 236.243 163.22 236.243C163.22 236.243 163.644 220.605 163.77 219.878C163.896 219.151 163.261 216.954 162.669 215.132C162.078 213.31 163.009 206.103 163.22 204.79C163.43 203.478 163.135 197.498 162.924 196.271C162.713 195.044 163.176 189.914 163.176 189.914C162.33 187.371 161.653 189.659 161.653 189.659L160.974 196.312L160.241 209.974C160.241 209.974 160.326 214.125 159.691 215.324C159.056 216.523 158.508 219.548 158.508 219.548L158.804 234.969C158.804 234.969 158.763 238.192 158.974 239.419C159.185 240.646 158.508 243.825 158.508 243.825C156.137 249.418 152.325 243.359 152.325 243.359C152.325 243.359 152.495 242.415 152.832 242.299C153.168 242.182 152.706 239.882 152.451 239.501C152.196 239.12 152.495 236.354 152.495 236.354C152.495 236.354 152.181 233.852 151.731 230.843C151.281 227.834 151.394 216.221 151.69 215.5C151.986 214.78 152.24 211.431 152.24 211.431C152.24 211.431 151.901 209.524 152.325 208.167C152.75 206.811 151.31 201.089 151.31 200.454C151.31 199.818 150.759 195.878 150.46 195.453C150.266 195.088 150.164 194.68 150.165 194.266C150.165 194.266 150.124 193.42 149.404 190.877C148.878 189.02 149.187 185.36 149.404 183.515C149.479 182.833 149.542 182.398 149.542 182.398C149.542 182.398 173.853 178.458 174.828 179.349C175.054 179.556 175.208 180.293 175.293 181.303C175.554 184.683 175.089 191.308 174.048 193.923Z" fill="#444053"/>
<path opacity="0.1" d="M164.858 212.964C164.971 212.964 167.654 213.19 168.632 212.992C169.61 212.794 164.858 212.964 164.858 212.964Z" fill="black"/>
<path opacity="0.1" d="M165.056 214.547C165.056 214.547 168.755 215.198 168.953 214.861C169.151 214.525 165.056 214.547 165.056 214.547Z" fill="black"/>
<path opacity="0.1" d="M153.734 213.87C153.734 213.87 155.653 213.955 156.697 214.433C157.741 214.912 153.734 213.87 153.734 213.87Z" fill="black"/>
<path d="M146.759 166.344C146.759 166.344 147.073 172.248 146.9 173.293C146.9 173.293 147.58 178.071 148.143 179.273C148.648 180.241 149.244 181.159 149.923 182.014L151.589 170.3L151.196 166.288L146.759 166.344Z" fill="#EFB7B9"/>
<path d="M164.267 139.445C167.869 139.445 170.79 136.523 170.79 132.918C170.79 129.313 167.869 126.391 164.267 126.391C160.665 126.391 157.744 129.313 157.744 132.918C157.744 136.523 160.665 139.445 164.267 139.445Z" fill="#EFB7B9"/>
<path d="M160.877 135.971C160.877 135.971 158.845 139.952 156.81 141.818C154.775 143.685 169.01 145.803 169.349 145.803C169.689 145.803 166.808 137.324 167.315 136.308C167.821 135.291 160.877 135.971 160.877 135.971Z" fill="#EFB7B9"/>
<path opacity="0.1" d="M175.278 181.334C174.959 181.579 174.608 181.777 174.234 181.923C171.636 182.94 168.812 184.353 166.89 183.786C164.968 183.22 160.914 183.786 160.914 183.786C160.914 183.786 152.737 183.109 151.089 183.503C150.536 183.67 149.948 183.681 149.388 183.537C149.463 182.855 149.526 182.42 149.526 182.42C149.526 182.42 173.837 178.48 174.812 179.371C175.039 179.578 175.193 180.299 175.278 181.334Z" fill="black"/>
<path d="M177.064 177.558C177.064 177.558 176.838 180.39 174.234 181.401C171.629 182.411 168.812 183.83 166.89 183.267C164.968 182.703 160.914 183.267 160.914 183.267C160.914 183.267 152.737 182.587 151.089 182.984C149.441 183.38 148.605 182.87 149.111 182.134C149.618 181.397 149.564 178.987 149.564 177.954C149.564 176.922 148.998 172.812 149.507 172.075C150.017 171.339 150.451 168.516 151.486 168.063C151.638 167.998 151.773 167.9 151.882 167.776C151.991 167.651 152.07 167.504 152.115 167.345C152.202 167.007 152.202 166.651 152.115 166.313C152.115 166.313 151.945 166.171 151.706 165.96C151.108 165.425 150.096 164.434 150.423 164.11C150.872 163.657 150.423 160.717 150.423 160.717C150.423 160.717 149.347 158.457 149.743 157.611C150.14 156.764 146.284 152.298 146.284 152.298C146.284 152.298 146.284 144.613 150.916 144.273C150.916 144.273 154.19 144.386 154.587 142.917C154.983 141.447 157.581 140.6 157.581 140.6L163.509 141.9C163.509 141.9 168.761 143.03 169.72 142.353C170.68 141.677 171.403 143.253 171.403 143.253C171.403 143.253 174.677 143.423 175.017 144.1C175.356 144.777 173.944 151.389 173.944 151.389C173.944 151.389 171.573 151.165 171.743 153.708C171.913 156.251 170.837 159.471 170.837 159.471C170.837 159.471 170.667 161.337 170.78 161.731C170.894 162.124 170.557 163.518 170.507 163.738V163.767C170.507 163.767 170.274 164.711 170.579 165.048C170.606 165.079 170.639 165.105 170.677 165.123C171.129 165.347 171.809 167.553 171.809 167.553C172.16 167.98 172.341 168.523 172.315 169.076C172.258 169.983 172.598 172.129 174.067 173.372C175.536 174.615 177.064 177.558 177.064 177.558Z" fill="#6C63FF"/>
<path d="M151.869 164.478V164.717L151.766 167.361C151.766 167.361 148.306 167.644 146.419 167.163C144.532 166.681 145.325 164.595 145.397 164.157C145.454 163.76 145.963 160.453 145.963 159.918C145.963 159.383 145.963 157.177 145.878 156.16C145.793 155.144 146.3 152.317 146.3 152.317L146.668 151.864L150.649 153.391L151.869 164.478Z" fill="#6C63FF"/>
<path opacity="0.1" d="M151.86 164.717L151.756 167.361C151.756 167.361 148.297 167.644 146.41 167.163C144.523 166.681 145.315 164.595 145.387 164.157L151.86 164.717Z" fill="black"/>
<path opacity="0.1" d="M152.111 167.348C152.199 167.01 152.199 166.655 152.111 166.316C152.111 166.316 151.942 166.174 151.703 165.964C154.697 165.548 166.538 163.921 170.529 163.76V163.789C170.529 163.789 170.296 164.733 170.601 165.07L152.111 167.348Z" fill="black"/>
<path opacity="0.1" d="M170.956 169.394C170.956 169.394 171.692 173.548 168.953 175.018C168.953 175.018 170.507 172.957 170.956 169.394Z" fill="black"/>
<path opacity="0.1" d="M153.027 175.131C153.027 175.131 159.631 174.002 160.933 174.876C162.235 175.751 153.027 175.131 153.027 175.131Z" fill="black"/>
<path opacity="0.1" d="M168.67 149.391C168.67 149.391 167.654 153.573 168.415 154.533C169.176 155.493 168.67 149.391 168.67 149.391Z" fill="black"/>
<path opacity="0.1" d="M149.526 145.973C149.526 145.973 150.47 147.524 149.894 149.136C149.319 150.747 149.526 145.973 149.526 145.973Z" fill="black"/>
<path d="M147.608 159.59C147.608 159.59 148.794 160.299 148.397 161.4C148.001 162.502 147.608 159.59 147.608 159.59Z" fill="#6C63FF"/>
<path opacity="0.1" d="M147.501 156.371C147.501 156.371 148.602 156.963 148.743 157.837C148.885 158.712 147.501 156.371 147.501 156.371Z" fill="black"/>
<path opacity="0.1" d="M163.814 190.162C163.814 190.162 170.733 190.87 172.114 189.218C172.114 189.231 165.874 190.461 163.814 190.162Z" fill="black"/>
<path opacity="0.1" d="M151.869 189.766C151.869 189.766 159.295 191.519 160.763 190.134C160.763 190.147 154.382 190.615 151.869 189.766Z" fill="black"/>
<path opacity="0.1" d="M164.349 192.45C164.349 192.45 167.456 192.45 168.896 192.535C170.337 192.62 164.349 192.45 164.349 192.45Z" fill="black"/>
<path opacity="0.1" d="M152.379 193.778C152.379 193.778 153.904 195.503 155.624 195.191C157.345 194.88 152.379 193.778 152.379 193.778Z" fill="black"/>
<path d="M155.363 123.193C154.885 123.936 154.87 124.795 154.734 125.62C154.392 127.636 153.447 129.502 152.023 130.97C150.671 132.411 148.812 133.717 148.46 135.477C148.13 137.148 149.256 138.756 149.847 140.383C151.42 144.673 149.218 149.173 148.589 153.601C148.413 154.826 148.624 156.39 150.13 156.796C150.602 156.922 151.14 156.906 151.564 157.11C152.13 157.381 152.303 157.948 152.407 158.454C152.786 160.274 152.917 162.136 152.797 163.99C152.728 165.032 152.652 166.228 153.634 166.945C154.135 167.255 154.686 167.474 155.263 167.594C156.81 168.012 158.81 168.343 159.855 167.367C160.292 166.958 160.455 166.379 161.002 166.055C161.82 165.57 162.981 165.897 164.009 165.948C164.985 165.988 165.953 165.766 166.814 165.304C167.674 164.841 168.394 164.156 168.9 163.32C169.733 161.816 169.661 160.11 169.352 158.492C169.044 156.874 168.51 155.276 168.472 153.639C168.423 153.067 168.55 152.494 168.837 151.996C169.466 151.021 170.928 150.577 171.931 149.812C173.818 148.377 173.799 146.036 173.12 144.053C172.441 142.07 171.211 140.201 171.06 138.164C170.994 137.673 171.091 137.173 171.337 136.742C171.676 136.343 172.069 135.992 172.504 135.7C175.243 133.387 174.919 129.585 172.655 126.986C170.145 124.09 158.792 117.881 155.363 123.193Z" fill="#E3787D"/>
<g opacity="0.1">
<path opacity="0.1" d="M150.215 142.19C150.482 140.481 150.333 138.733 149.781 137.094C149.485 136.273 149.051 135.458 148.734 134.636C148.578 134.934 148.464 135.252 148.394 135.581C148.064 137.252 149.19 138.86 149.781 140.487C149.982 141.039 150.127 141.609 150.215 142.19Z" fill="black"/>
<path opacity="0.1" d="M152.737 160.701C152.857 158.847 152.726 156.985 152.347 155.166C152.244 154.659 152.071 154.092 151.505 153.822C151.08 153.617 150.542 153.633 150.07 153.507C149.783 153.436 149.515 153.301 149.287 153.112C149.059 152.923 148.876 152.684 148.753 152.415C148.668 152.843 148.592 153.274 148.529 153.702C148.353 154.926 148.564 156.491 150.07 156.897C150.542 157.022 151.08 157.007 151.505 157.211C152.071 157.485 152.244 158.048 152.347 158.558C152.522 159.402 152.644 160.255 152.712 161.114C152.718 160.975 152.728 160.837 152.737 160.701Z" fill="black"/>
<path opacity="0.1" d="M168.84 160.031C168.335 160.868 167.615 161.553 166.754 162.015C165.894 162.478 164.925 162.7 163.949 162.659C162.921 162.609 161.748 162.281 160.943 162.766C160.399 163.081 160.232 163.669 159.795 164.078C158.751 165.054 156.75 164.724 155.203 164.305C154.627 164.186 154.076 163.966 153.577 163.654C153.151 163.34 152.862 162.873 152.772 162.351C152.772 162.93 152.772 163.512 152.737 164.091C152.668 165.133 152.593 166.329 153.577 167.046C154.077 167.356 154.627 167.575 155.203 167.695C156.75 168.113 158.751 168.444 159.795 167.471C160.232 167.059 160.399 166.48 160.943 166.156C161.76 165.671 162.921 165.998 163.949 166.049C164.925 166.089 165.894 165.867 166.754 165.405C167.615 164.942 168.335 164.257 168.84 163.421C169.642 161.976 169.607 160.343 169.327 158.782C169.22 159.218 169.056 159.638 168.84 160.031Z" fill="black"/>
<path opacity="0.1" d="M172.419 132.386C171.99 132.686 171.606 133.045 171.277 133.453C171.031 133.884 170.934 134.384 171 134.876C171.056 135.495 171.187 136.104 171.39 136.692C171.704 136.355 172.048 136.049 172.419 135.776C174.271 134.202 174.721 131.968 174.12 129.875C173.804 130.857 173.214 131.729 172.419 132.386Z" fill="black"/>
<path opacity="0.1" d="M171.872 146.523C170.868 147.288 169.406 147.732 168.777 148.704C168.491 149.203 168.364 149.777 168.412 150.35C168.436 151.012 168.517 151.67 168.654 152.317C168.689 152.241 168.73 152.167 168.777 152.097C169.406 151.121 170.868 150.678 171.872 149.913C173.583 148.601 173.727 146.527 173.221 144.676C172.962 145.411 172.492 146.053 171.872 146.523Z" fill="black"/>
</g>
<path d="M184.766 147.216C183.609 150.155 182.109 151.307 182.109 151.307H181.275L173.95 151.383L173.104 149.066L174.29 144.065L175.023 144.094C175.463 144.327 175.941 144.48 176.435 144.547C176.973 144.547 178.008 144.519 178.322 144.66C178.366 144.679 178.413 144.686 178.46 144.679C178.737 144.651 179.026 144.235 179.026 144.235C179.026 144.235 185.92 144.276 184.766 147.216Z" fill="#6C63FF"/>
<path opacity="0.1" d="M184.766 147.216C183.609 150.155 182.109 151.307 182.109 151.307H181.275C181.712 150.143 182.628 147.754 182.986 147.216C183.345 146.678 180.259 145.394 178.467 144.698C178.743 144.67 179.033 144.254 179.033 144.254C179.033 144.254 185.92 144.276 184.766 147.216Z" fill="black"/>
<defs>
<linearGradient id="paint0_linear" x1="180.643" y1="149.507" x2="180.643" y2="121.579" gradientUnits="userSpaceOnUse">
<stop stop-color="#808080" stop-opacity="0.25"/>
<stop offset="0.54" stop-color="#808080" stop-opacity="0.12"/>
<stop offset="1" stop-color="#808080" stop-opacity="0.1"/>
</linearGradient>
<linearGradient id="paint1_linear" x1="5019.83" y1="5889.11" x2="5019.83" y2="5747.64" gradientUnits="userSpaceOnUse">
<stop stop-color="#808080" stop-opacity="0.25"/>
<stop offset="0.54" stop-color="#808080" stop-opacity="0.12"/>
<stop offset="1" stop-color="#808080" stop-opacity="0.1"/>
</linearGradient>
<linearGradient id="paint2_linear" x1="4732.16" y1="5861.96" x2="4732.16" y2="5720.44" gradientUnits="userSpaceOnUse">
<stop stop-color="#808080" stop-opacity="0.25"/>
<stop offset="0.54" stop-color="#808080" stop-opacity="0.12"/>
<stop offset="1" stop-color="#808080" stop-opacity="0.1"/>
</linearGradient>
<linearGradient id="paint3_linear" x1="2958.71" y1="2391.38" x2="2958.71" y2="2370.42" gradientUnits="userSpaceOnUse">
<stop stop-color="#808080" stop-opacity="0.25"/>
<stop offset="0.54" stop-color="#808080" stop-opacity="0.12"/>
<stop offset="1" stop-color="#808080" stop-opacity="0.1"/>
</linearGradient>
<linearGradient id="paint4_linear" x1="3332.04" y1="2474.93" x2="3332.04" y2="2452.25" gradientUnits="userSpaceOnUse">
<stop stop-color="#808080" stop-opacity="0.25"/>
<stop offset="0.54" stop-color="#808080" stop-opacity="0.12"/>
<stop offset="1" stop-color="#808080" stop-opacity="0.1"/>
</linearGradient>
<linearGradient id="paint5_linear" x1="15752.4" y1="56543.2" x2="15752.4" y2="42062.5" gradientUnits="userSpaceOnUse">
<stop stop-color="#808080" stop-opacity="0.25"/>
<stop offset="0.54" stop-color="#808080" stop-opacity="0.12"/>
<stop offset="1" stop-color="#808080" stop-opacity="0.1"/>
</linearGradient>
<linearGradient id="paint6_linear" x1="2554.36" y1="343.965" x2="2554.36" y2="343.862" gradientUnits="userSpaceOnUse">
<stop stop-color="#808080" stop-opacity="0.25"/>
<stop offset="0.54" stop-color="#808080" stop-opacity="0.12"/>
<stop offset="1" stop-color="#808080" stop-opacity="0.1"/>
</linearGradient>
<linearGradient id="paint7_linear" x1="2546.82" y1="517.819" x2="2546.82" y2="517.278" gradientUnits="userSpaceOnUse">
<stop stop-color="#808080" stop-opacity="0.25"/>
<stop offset="0.54" stop-color="#808080" stop-opacity="0.12"/>
<stop offset="1" stop-color="#808080" stop-opacity="0.1"/>
</linearGradient>
<linearGradient id="paint8_linear" x1="1947.06" y1="724.944" x2="1947.06" y2="723.404" gradientUnits="userSpaceOnUse">
<stop stop-color="#808080" stop-opacity="0.25"/>
<stop offset="0.54" stop-color="#808080" stop-opacity="0.12"/>
<stop offset="1" stop-color="#808080" stop-opacity="0.1"/>
</linearGradient>
<linearGradient id="paint9_linear" x1="2806.18" y1="10153.3" x2="2806.18" y2="9353.37" gradientUnits="userSpaceOnUse">
<stop stop-color="#808080" stop-opacity="0.25"/>
<stop offset="0.54" stop-color="#808080" stop-opacity="0.12"/>
<stop offset="1" stop-color="#808080" stop-opacity="0.1"/>
</linearGradient>
<linearGradient id="paint10_linear" x1="7082.17" y1="5918.93" x2="7082.17" y2="5368.52" gradientUnits="userSpaceOnUse">
<stop stop-color="#808080" stop-opacity="0.25"/>
<stop offset="0.54" stop-color="#808080" stop-opacity="0.12"/>
<stop offset="1" stop-color="#808080" stop-opacity="0.1"/>
</linearGradient>
<linearGradient id="paint11_linear" x1="7771.77" y1="5338.61" x2="7771.77" y2="5012.12" gradientUnits="userSpaceOnUse">
<stop stop-color="#808080" stop-opacity="0.25"/>
<stop offset="0.54" stop-color="#808080" stop-opacity="0.12"/>
<stop offset="1" stop-color="#808080" stop-opacity="0.1"/>
</linearGradient>
<linearGradient id="paint12_linear" x1="15542.7" y1="3167.81" x2="15542.7" y2="3097.48" gradientUnits="userSpaceOnUse">
<stop stop-color="#808080" stop-opacity="0.25"/>
<stop offset="0.54" stop-color="#808080" stop-opacity="0.12"/>
<stop offset="1" stop-color="#808080" stop-opacity="0.1"/>
</linearGradient>
<linearGradient id="paint13_linear" x1="18371.9" y1="27483.4" x2="18371.9" y2="21568.7" gradientUnits="userSpaceOnUse">
<stop stop-color="#808080" stop-opacity="0.25"/>
<stop offset="0.54" stop-color="#808080" stop-opacity="0.12"/>
<stop offset="1" stop-color="#808080" stop-opacity="0.1"/>
</linearGradient>
<linearGradient id="paint14_linear" x1="3835.3" y1="9296.96" x2="3835.3" y2="8512.81" gradientUnits="userSpaceOnUse">
<stop stop-color="#808080" stop-opacity="0.25"/>
<stop offset="0.54" stop-color="#808080" stop-opacity="0.12"/>
<stop offset="1" stop-color="#808080" stop-opacity="0.1"/>
</linearGradient>
<linearGradient id="paint15_linear" x1="3835.14" y1="2094.82" x2="3835.14" y2="2059.92" gradientUnits="userSpaceOnUse">
<stop stop-color="#808080" stop-opacity="0.25"/>
<stop offset="0.54" stop-color="#808080" stop-opacity="0.12"/>
<stop offset="1" stop-color="#808080" stop-opacity="0.1"/>
</linearGradient>
<linearGradient id="paint16_linear" x1="11312.6" y1="2280.1" x2="11312.6" y2="2238.12" gradientUnits="userSpaceOnUse">
<stop stop-color="#808080" stop-opacity="0.25"/>
<stop offset="0.54" stop-color="#808080" stop-opacity="0.12"/>
<stop offset="1" stop-color="#808080" stop-opacity="0.1"/>
</linearGradient>
<linearGradient id="paint17_linear" x1="1466.99" y1="3607.24" x2="1466.99" y2="3505.16" gradientUnits="userSpaceOnUse">
<stop stop-color="#808080" stop-opacity="0.25"/>
<stop offset="0.54" stop-color="#808080" stop-opacity="0.12"/>
<stop offset="1" stop-color="#808080" stop-opacity="0.1"/>
</linearGradient>
<linearGradient id="paint18_linear" x1="4788.73" y1="664.156" x2="4788.73" y2="662.092" gradientUnits="userSpaceOnUse">
<stop stop-color="#808080" stop-opacity="0.25"/>
<stop offset="0.54" stop-color="#808080" stop-opacity="0.12"/>
<stop offset="1" stop-color="#808080" stop-opacity="0.1"/>
</linearGradient>
<linearGradient id="paint19_linear" x1="600.073" y1="3012.42" x2="600.073" y2="2923.6" gradientUnits="userSpaceOnUse">
<stop stop-color="#808080" stop-opacity="0.25"/>
<stop offset="0.54" stop-color="#808080" stop-opacity="0.12"/>
<stop offset="1" stop-color="#808080" stop-opacity="0.1"/>
</linearGradient>
<linearGradient id="paint20_linear" x1="469.943" y1="1995.59" x2="469.943" y2="1956.09" gradientUnits="userSpaceOnUse">
<stop stop-color="#808080" stop-opacity="0.25"/>
<stop offset="0.54" stop-color="#808080" stop-opacity="0.12"/>
<stop offset="1" stop-color="#808080" stop-opacity="0.1"/>
</linearGradient>
<linearGradient id="paint21_linear" x1="623.777" y1="1330.26" x2="623.777" y2="1316.55" gradientUnits="userSpaceOnUse">
<stop stop-color="#808080" stop-opacity="0.25"/>
<stop offset="0.54" stop-color="#808080" stop-opacity="0.12"/>
<stop offset="1" stop-color="#808080" stop-opacity="0.1"/>
</linearGradient>
<linearGradient id="paint22_linear" x1="830.52" y1="1083.42" x2="830.52" y2="1074.46" gradientUnits="userSpaceOnUse">
<stop stop-color="#808080" stop-opacity="0.25"/>
<stop offset="0.54" stop-color="#808080" stop-opacity="0.12"/>
<stop offset="1" stop-color="#808080" stop-opacity="0.1"/>
</linearGradient>
<linearGradient id="paint23_linear" x1="5253.52" y1="908.447" x2="5253.52" y2="904.64" gradientUnits="userSpaceOnUse">
<stop stop-color="#808080" stop-opacity="0.25"/>
<stop offset="0.54" stop-color="#808080" stop-opacity="0.12"/>
<stop offset="1" stop-color="#808080" stop-opacity="0.1"/>
</linearGradient>
<linearGradient id="paint24_linear" x1="5263.52" y1="784.841" x2="5263.52" y2="782.231" gradientUnits="userSpaceOnUse">
<stop stop-color="#808080" stop-opacity="0.25"/>
<stop offset="0.54" stop-color="#808080" stop-opacity="0.12"/>
<stop offset="1" stop-color="#808080" stop-opacity="0.1"/>
</linearGradient>
<linearGradient id="paint25_linear" x1="3070.69" y1="264.111" x2="3070.69" y2="264.074" gradientUnits="userSpaceOnUse">
<stop stop-color="#808080" stop-opacity="0.25"/>
<stop offset="0.54" stop-color="#808080" stop-opacity="0.12"/>
<stop offset="1" stop-color="#808080" stop-opacity="0.1"/>
</linearGradient>
<linearGradient id="paint26_linear" x1="2200.9" y1="1176.11" x2="2200.9" y2="1169.31" gradientUnits="userSpaceOnUse">
<stop stop-color="#808080" stop-opacity="0.25"/>
<stop offset="0.54" stop-color="#808080" stop-opacity="0.12"/>
<stop offset="1" stop-color="#808080" stop-opacity="0.1"/>
</linearGradient>
<linearGradient id="paint27_linear" x1="15554.2" y1="27768.7" x2="15554.2" y2="20661.2" gradientUnits="userSpaceOnUse">
<stop stop-color="#808080" stop-opacity="0.25"/>
<stop offset="0.54" stop-color="#808080" stop-opacity="0.12"/>
<stop offset="1" stop-color="#808080" stop-opacity="0.1"/>
</linearGradient>
<linearGradient id="paint28_linear" x1="1256.18" y1="3955.55" x2="1256.18" y2="3771.24" gradientUnits="userSpaceOnUse">
<stop stop-color="#808080" stop-opacity="0.25"/>
<stop offset="0.54" stop-color="#808080" stop-opacity="0.12"/>
<stop offset="1" stop-color="#808080" stop-opacity="0.1"/>
</linearGradient>
<linearGradient id="paint29_linear" x1="2541.85" y1="5083.02" x2="2541.85" y2="4838.66" gradientUnits="userSpaceOnUse">
<stop stop-color="#808080" stop-opacity="0.25"/>
<stop offset="0.54" stop-color="#808080" stop-opacity="0.12"/>
<stop offset="1" stop-color="#808080" stop-opacity="0.1"/>
</linearGradient>
<linearGradient id="paint30_linear" x1="10077.5" y1="5656.3" x2="10077.5" y2="5375.48" gradientUnits="userSpaceOnUse">
<stop stop-color="#808080" stop-opacity="0.25"/>
<stop offset="0.54" stop-color="#808080" stop-opacity="0.12"/>
<stop offset="1" stop-color="#808080" stop-opacity="0.1"/>
</linearGradient>
<linearGradient id="paint31_linear" x1="2302.1" y1="3456.92" x2="2302.1" y2="3306.81" gradientUnits="userSpaceOnUse">
<stop stop-color="#808080" stop-opacity="0.25"/>
<stop offset="0.54" stop-color="#808080" stop-opacity="0.12"/>
<stop offset="1" stop-color="#808080" stop-opacity="0.1"/>
</linearGradient>
<linearGradient id="paint32_linear" x1="3329.88" y1="4261.54" x2="3329.88" y2="4072.86" gradientUnits="userSpaceOnUse">
<stop stop-color="#808080" stop-opacity="0.25"/>
<stop offset="0.54" stop-color="#808080" stop-opacity="0.12"/>
<stop offset="1" stop-color="#808080" stop-opacity="0.1"/>
</linearGradient>
<linearGradient id="paint33_linear" x1="7831.06" y1="4059.29" x2="7831.06" y2="3886.52" gradientUnits="userSpaceOnUse">
<stop stop-color="#808080" stop-opacity="0.25"/>
<stop offset="0.54" stop-color="#808080" stop-opacity="0.12"/>
<stop offset="1" stop-color="#808080" stop-opacity="0.1"/>
</linearGradient>
<linearGradient id="paint34_linear" x1="4411.13" y1="3930.64" x2="4411.13" y2="3769.04" gradientUnits="userSpaceOnUse">
<stop stop-color="#808080" stop-opacity="0.25"/>
<stop offset="0.54" stop-color="#808080" stop-opacity="0.12"/>
<stop offset="1" stop-color="#808080" stop-opacity="0.1"/>
</linearGradient>
</defs>
</svg>
