<svg width="150" height="150" viewBox="0 0 150 150" fill="none" xmlns="http://www.w3.org/2000/svg">
<circle cx="75" cy="75" r="75" fill="url(#paint0_linear)"/>
<path d="M67.1618 109.071C67.1618 113.398 70.6673 116.9 75 116.9C79.3327 116.9 82.8382 113.398 82.8382 109.071H67.1618ZM102.099 92.5865V69.6898C102.099 56.9038 93.2367 46.203 81.2627 43.3704V40.5378C81.2627 37.0757 78.4661 34.2825 75 34.2825C71.5339 34.2825 68.7373 37.0757 68.7373 40.5378V43.3704C56.7633 46.203 47.901 56.9038 47.901 69.6898V92.5865L39.5508 100.927V105.097H110.449V100.927L102.099 92.5865Z" fill="white"/>
<defs>
<linearGradient id="paint0_linear" x1="20" y1="9.58334" x2="389.167" y2="449.167" gradientUnits="userSpaceOnUse">
<stop stop-color="#202F44"/>
<stop stop-color="#253449"/>
<stop offset="1" stop-color="#6B7C93"/>
</linearGradient>
</defs>
</svg>
